# Aspose.3D Wavefront OBJ Exporter
# Copyright 2004-2021 Aspose Pty Ltd.
# File created: 09/01/2021 20:00:55


#
# object Model
#

v -13.49820789020276736 10.78050683612804048 30.2592191696166992
v -13.31615909259534548 10.56371757562141056 30.2592191696166992
v -13.07096465747571656 10.42222926194648384 30.2592191696166992
v -13.88747008960462288 11.45401622529010408 30.2592191696166992
v -12.79217227618909552 10.37309266800861 30.2592191696166992
v -13.93557532947278688 11.63338460202197664 30.2592191696166992
v -13.93557532947278688 15.61747874493579504 30.2592191696166992
v -13.8583525053761072 15.90567816967944736 30.2592191696166992
v -13.64737590472913456 16.11665524716357822 30.2592191696166992
v -0.66493042628980344 10.42222903097848528 30.2592191696166992
v -0.41973575275159544 10.56371672625522248 30.2592191696166992
v -13.3591764799854822 16.19387807126025792 30.2592191696166992
v 0.19968739826463988 15.61747874493579504 30.25922298431396484
v 0.1224645741679602 15.90567816967944736 30.25922298431396484
v -0.08851226489759156 16.11665524716357822 30.25922298431396484
v -0.37671192805982304 16.19387807126025792 30.25922298431396484
v -0.9437223307392664 10.37309266800861 30.2592191696166992
v -0.23768623988843628 10.78050516719798672 30.2592191696166992
v 0.15158120472215942 11.45401634449939368 30.25922489166259764
v 0.19968739826463988 11.63338472123126624 30.25922489166259764
# 20 vertices

vn 1.660556137039748E-08 0 1
vn 6.961699546081945E-05 0 1
vn 1.57450142523885E-06 0 1
vn 4.441635326202231E-07 0 1
vn 0 0 1
vn 1.8178062077822688E-07 0 1
vn 1.3227815998106962E-07 0 1
vn 0 0 1
vn 0 0 0.9999999403953552
vn -5.68063205719227E-06 0 1
vn 1.391047135257395E-06 0 1
vn -3.9165118437267665E-07 1.241052700606815E-07 1
vn 0 4.7492378030256077E-07 1
vn 0 0 1
vn 0 0 1
vn -5.07468200794392E-07 3.823071494934993E-07 1
vn 1.4342620033858111E-06 0 1
vn 1.077535557669762E-06 -5.446410796139389E-06 1
vn -3.35756408276211E-06 -5.4155084399099E-06 1
vn -1.4695496020067367E-06 3.64573111255595E-07 1
# 20 vertex normals

vt 0.58687657117843624 0.5977773070335388 0
vt 0.58853209018707272 0.5968220829963684 0
vt 0.59041410684585568 0.59649050235748288 0
vt 0.67040765285491944 0.59649050235748288 0
vt 0.6722897291183472 0.5968220829963684 0
vt 0.67394524812698368 0.5977773070335388 0
vt 0.67517423629760744 0.59924101829528808 0
vt 0.67780244350433352 0.60378813743591312 0
vt 0.67812705039978024 0.60499906539916992 0
vt 0.67812705039978024 0.63189744949340824 0
vt 0.67760580778121952 0.63384288549423216 0
vt 0.676181435585022 0.63526719808578488 0
vt 0.67423570156097416 0.63578861951828 0
vt 0.58658599853515624 0.63578861951828 0
vt 0.5846402645111084 0.63526719808578488 0
vt 0.58321583271026608 0.63384288549423216 0
vt 0.58269470930099488 0.63189744949340824 0
vt 0.58269470930099488 0.60499906539916992 0
vt 0.58301925659179688 0.60378813743591312 0
vt 0.58564734458923336 0.59924095869064328 0
# 20 texture coords

g Model
usemtl Material
s 1
f 14/11/14 15/12/15 13/10/13
f 15/12/15 16/13/16 13/10/13
f 13/10/13 16/13/16 20/9/20
f 16/13/16 12/14/12 20/9/20
f 20/9/20 12/14/12 19/8/19
f 19/8/19 12/14/12 18/7/18
f 18/7/18 12/14/12 11/6/11
f 11/6/11 12/14/12 10/5/10
f 10/5/10 12/14/12 17/4/17
f 12/14/12 9/15/9 17/4/17
f 9/15/9 8/16/8 17/4/17
f 8/16/8 7/17/7 17/4/17
f 2/1/2 3/2/3 1/20/1
f 3/2/3 5/3/5 1/20/1
f 5/3/5 17/4/17 1/20/1
f 1/20/1 17/4/17 4/19/4
f 4/19/4 17/4/17 6/18/6
f 17/4/17 7/17/7 6/18/6
#18 polygons
